<?xml version="1.0" standalone="no"?>
<!DOCTYPE svg PUBLIC "-//W3C//DTD SVG 20010904//EN"
 "http://www.w3.org/TR/2001/REC-SVG-20010904/DTD/svg10.dtd">
<svg version="1.0" xmlns="http://www.w3.org/2000/svg"
 width="128.000000pt" height="128.000000pt" viewBox="0 0 128.000000 128.000000"
 preserveAspectRatio="xMidYMid meet">

<g transform="translate(0.000000,128.000000) scale(0.100000,-0.100000)"
fill="#000000" stroke="none">
<path d="M159 1194 c-59 -71 -67 -97 -31 -102 21 -3 22 -7 22 -116 0 -141 4
-148 85 -144 l60 3 3 127 c2 122 3 127 25 130 12 2 23 10 25 19 3 19 -103 149
-122 149 -7 0 -37 -30 -67 -66z m116 -66 c-12 -7 -15 -32 -15 -133 l0 -125
-30 0 -30 0 0 114 c0 123 -4 146 -27 146 -9 0 -3 14 19 41 l33 41 33 -38 c27
-32 30 -39 17 -46z"/>
<path d="M605 1235 c-20 -14 -58 -28 -83 -32 -58 -7 -79 -25 -93 -77 -6 -23
-26 -58 -45 -78 -37 -42 -43 -76 -19 -118 8 -14 14 -52 15 -87 0 -57 2 -63 32
-86 l32 -25 -37 -82 c-50 -111 -50 -114 17 -106 l55 6 22 -40 c13 -22 30 -40
38 -40 10 0 32 34 58 91 42 89 43 90 75 87 30 -3 36 -9 67 -75 19 -40 41 -73
48 -73 7 0 24 18 38 41 27 42 33 44 108 23 30 -9 29 21 -3 98 l-32 75 26 26
c22 22 26 35 26 84 1 32 7 69 15 83 24 43 18 75 -24 124 -21 25 -41 60 -45 80
-8 42 -33 61 -94 70 -24 4 -60 18 -80 31 -46 32 -70 31 -117 0z m105 -39 c19
-13 56 -26 82 -30 52 -8 63 -17 73 -65 4 -18 23 -51 43 -73 34 -38 35 -41 22
-71 -7 -18 -15 -61 -18 -95 -4 -60 -6 -65 -35 -80 -18 -10 -53 -38 -78 -64
-47 -46 -47 -46 -89 -36 -29 8 -56 8 -88 0 -56 -12 -61 -10 -90 33 -13 20 -42
45 -67 57 -45 22 -45 22 -45 75 0 30 -7 70 -15 90 -21 49 -19 59 15 94 16 17
36 53 45 80 16 48 17 49 65 55 27 3 66 17 87 30 47 29 51 29 93 0z m170 -530
l20 -48 -34 6 c-30 6 -37 3 -52 -19 -20 -31 -31 -32 -40 -3 -5 16 0 27 18 42
14 12 33 34 43 49 10 15 19 26 21 25 1 -2 12 -25 24 -52z m-325 -32 l24 -6
-22 -44 -21 -44 -19 31 c-18 27 -24 30 -54 24 -18 -3 -33 -4 -33 -1 0 3 12 30
27 60 l27 55 23 -34 c13 -19 34 -37 48 -41z"/>
<path d="M585 1124 c-135 -70 -154 -247 -35 -333 79 -57 182 -49 250 19 33 33
60 94 60 136 0 38 -21 94 -47 125 -53 62 -162 88 -228 53z m155 -46 c55 -38
75 -73 75 -133 0 -90 -60 -150 -150 -150 -121 0 -193 124 -132 229 42 73 141
99 207 54z"/>
<path d="M688 974 c-46 -47 -53 -48 -90 -22 -14 10 -20 10 -30 0 -9 -9 -6 -18
17 -42 16 -16 35 -30 43 -30 22 0 132 101 132 121 0 31 -22 22 -72 -27z"/>
<path d="M1036 1198 c-60 -67 -69 -100 -29 -106 22 -3 23 -8 25 -130 l3 -127
65 0 65 0 3 128 c3 126 3 127 26 127 35 0 39 25 9 62 -40 50 -96 108 -104 108
-4 0 -33 -28 -63 -62z m98 -25 c27 -31 28 -36 13 -45 -15 -8 -17 -27 -17 -133
l0 -125 -30 0 -30 0 0 125 c0 106 -2 125 -17 133 -15 9 -14 14 13 45 16 20 31
36 34 36 3 0 18 -16 34 -36z"/>
<path d="M300 409 c-41 -23 -81 -46 -88 -52 -10 -7 -17 -5 -28 11 -8 12 -22
22 -30 22 -25 0 -91 -38 -98 -56 -6 -16 113 -246 154 -296 20 -25 52 -20 94
13 24 19 27 27 23 56 -4 23 -2 36 7 39 7 3 63 -9 124 -26 62 -16 127 -30 146
-30 24 0 69 22 162 78 251 152 244 147 244 190 0 25 -7 45 -18 55 -35 32 -81
21 -202 -47 l-115 -64 -6 27 c-3 15 -9 33 -12 38 -9 14 -226 83 -259 83 -12 0
-57 -19 -98 -41z m225 -32 c82 -26 100 -36 100 -52 0 -27 -31 -30 -96 -11 -54
16 -69 14 -69 -9 0 -14 25 -23 125 -45 65 -15 81 -10 211 66 112 64 166 80
177 49 3 -7 -2 -23 -11 -33 -31 -35 -330 -212 -358 -212 -15 0 -79 14 -141 31
-71 19 -125 28 -142 24 -27 -6 -31 -2 -65 60 -20 36 -36 67 -36 70 0 4 78 50
135 79 41 22 56 20 170 -17z m-295 -169 c33 -58 60 -111 60 -116 0 -5 -11 -14
-25 -20 -29 -13 -22 -22 -113 141 l-61 107 27 14 c33 18 31 21 112 -126z"/>
<path d="M125 309 c-10 -15 1 -23 20 -15 9 3 13 10 10 16 -8 13 -22 13 -30 -1z"/>
</g>
</svg>
