<?xml version="1.0" standalone="no"?>
<!DOCTYPE svg PUBLIC "-//W3C//DTD SVG 20010904//EN"
 "http://www.w3.org/TR/2001/REC-SVG-20010904/DTD/svg10.dtd">
<svg version="1.0" xmlns="http://www.w3.org/2000/svg"
 width="128.000000pt" height="128.000000pt" viewBox="0 0 128.000000 128.000000"
 preserveAspectRatio="xMidYMid meet">

<g transform="translate(0.000000,128.000000) scale(0.100000,-0.100000)"
fill="#000000" stroke="none">
<path d="M590 1174 c-48 -35 -174 -98 -235 -117 -27 -9 -81 -21 -118 -26 -38
-5 -75 -15 -84 -23 -13 -11 -15 -40 -11 -208 5 -176 8 -203 31 -275 63 -191
206 -351 376 -420 74 -31 104 -31 178 -4 113 43 214 118 291 219 31 41 79 142
97 206 25 87 34 464 12 483 -9 7 -46 17 -84 22 -114 16 -219 57 -341 135 -29
19 -58 34 -65 34 -6 -1 -28 -12 -47 -26z m98 -94 c108 -66 280 -130 350 -130
22 0 22 -3 22 -145 0 -253 -40 -374 -165 -501 -72 -73 -167 -129 -239 -141
-70 -11 -224 87 -303 192 -101 134 -124 208 -130 428 l-6 167 24 0 c71 0 272
76 364 138 17 11 31 21 32 21 2 1 25 -13 51 -29z"/>
<path d="M700 675 l-115 -115 -61 61 c-47 46 -67 60 -85 57 -16 -2 -25 -11
-27 -27 -3 -19 14 -42 79 -107 46 -46 88 -84 94 -84 6 0 72 62 149 139 111
112 137 143 134 162 -2 17 -10 25 -28 27 -20 2 -47 -19 -140 -113z"/>
</g>
</svg>
